<svg width="83" height="9" viewBox="0 0 83 9" fill="none" xmlns="http://www.w3.org/2000/svg">
<path d="M0.83 1H4.01C4.77 1 5.44 1.14667 6.02 1.44C6.60667 1.72667 7.06 2.13333 7.38 2.66C7.70667 3.18667 7.87 3.8 7.87 4.5C7.87 5.2 7.70667 5.81333 7.38 6.34C7.06 6.86667 6.60667 7.27667 6.02 7.57C5.44 7.85667 4.77 8 4.01 8H0.83V1ZM3.93 6.67C4.63 6.67 5.18667 6.47667 5.6 6.09C6.02 5.69667 6.23 5.16667 6.23 4.5C6.23 3.83333 6.02 3.30667 5.6 2.92C5.18667 2.52667 4.63 2.33 3.93 2.33H2.45V6.67H3.93ZM15.5117 6.7V8H10.0917V1H15.3817V2.3H11.7017V3.82H14.9517V5.08H11.7017V6.7H15.5117ZM20.1007 8.12C19.5474 8.12 19.0107 8.04667 18.4907 7.9C17.9774 7.74667 17.564 7.55 17.2507 7.31L17.8007 6.09C18.1007 6.31 18.4574 6.48667 18.8707 6.62C19.284 6.75333 19.6974 6.82 20.1107 6.82C20.5707 6.82 20.9107 6.75333 21.1307 6.62C21.3507 6.48 21.4607 6.29667 21.4607 6.07C21.4607 5.90333 21.394 5.76667 21.2607 5.66C21.134 5.54667 20.9674 5.45667 20.7607 5.39C20.5607 5.32333 20.2874 5.25 19.9407 5.17C19.4074 5.04333 18.9707 4.91667 18.6307 4.79C18.2907 4.66333 17.9974 4.46 17.7507 4.18C17.5107 3.9 17.3907 3.52667 17.3907 3.06C17.3907 2.65333 17.5007 2.28667 17.7207 1.96C17.9407 1.62667 18.2707 1.36333 18.7107 1.17C19.1574 0.976666 19.7007 0.88 20.3407 0.88C20.7874 0.88 21.224 0.933333 21.6507 1.04C22.0774 1.14667 22.4507 1.3 22.7707 1.5L22.2707 2.73C21.624 2.36333 20.9774 2.18 20.3307 2.18C19.8774 2.18 19.5407 2.25333 19.3207 2.4C19.1074 2.54667 19.0007 2.74 19.0007 2.98C19.0007 3.22 19.124 3.4 19.3707 3.52C19.624 3.63333 20.0074 3.74667 20.5207 3.86C21.054 3.98667 21.4907 4.11333 21.8307 4.24C22.1707 4.36667 22.4607 4.56667 22.7007 4.84C22.9474 5.11333 23.0707 5.48333 23.0707 5.95C23.0707 6.35 22.9574 6.71667 22.7307 7.05C22.5107 7.37667 22.1774 7.63667 21.7307 7.83C21.284 8.02333 20.7407 8.12 20.1007 8.12ZM25.1777 1H26.7977V8H25.1777V1ZM34.1889 4.39H35.6689V7.23C35.2889 7.51667 34.8489 7.73667 34.3489 7.89C33.8489 8.04333 33.3456 8.12 32.8389 8.12C32.1122 8.12 31.4589 7.96667 30.8789 7.66C30.2989 7.34667 29.8422 6.91667 29.5089 6.37C29.1822 5.81667 29.0189 5.19333 29.0189 4.5C29.0189 3.80667 29.1822 3.18667 29.5089 2.64C29.8422 2.08667 30.3022 1.65667 30.8889 1.35C31.4756 1.03667 32.1356 0.88 32.8689 0.88C33.4822 0.88 34.0389 0.983333 34.5389 1.19C35.0389 1.39667 35.4589 1.69667 35.7989 2.09L34.7589 3.05C34.2589 2.52333 33.6556 2.26 32.9489 2.26C32.5022 2.26 32.1056 2.35333 31.7589 2.54C31.4122 2.72667 31.1422 2.99 30.9489 3.33C30.7556 3.67 30.6589 4.06 30.6589 4.5C30.6589 4.93333 30.7556 5.32 30.9489 5.66C31.1422 6 31.4089 6.26667 31.7489 6.46C32.0956 6.64667 32.4889 6.74 32.9289 6.74C33.3956 6.74 33.8156 6.64 34.1889 6.44V4.39ZM44.5938 1V8H43.2638L39.7738 3.75V8H38.1738V1H39.5138L42.9937 5.25V1H44.5938ZM52.6699 6.7V8H47.2499V1H52.5399V2.3H48.8599V3.82H52.1099V5.08H48.8599V6.7H52.6699ZM54.9589 1H58.1389C58.8989 1 59.5689 1.14667 60.1489 1.44C60.7356 1.72667 61.1889 2.13333 61.5089 2.66C61.8356 3.18667 61.9989 3.8 61.9989 4.5C61.9989 5.2 61.8356 5.81333 61.5089 6.34C61.1889 6.86667 60.7356 7.27667 60.1489 7.57C59.5689 7.85667 58.8989 8 58.1389 8H54.9589V1ZM58.0589 6.67C58.7589 6.67 59.3156 6.47667 59.7289 6.09C60.1489 5.69667 60.3589 5.16667 60.3589 4.5C60.3589 3.83333 60.1489 3.30667 59.7289 2.92C59.3156 2.52667 58.7589 2.33 58.0589 2.33H56.5789V6.67H58.0589ZM73.1927 4.36C73.5927 4.48667 73.906 4.7 74.1327 5C74.3593 5.29333 74.4727 5.65667 74.4727 6.09C74.4727 6.70333 74.2327 7.17667 73.7527 7.51C73.2793 7.83667 72.586 8 71.6727 8H68.0527V1H71.4727C72.326 1 72.9793 1.16333 73.4327 1.49C73.8927 1.81667 74.1227 2.26 74.1227 2.82C74.1227 3.16 74.0393 3.46333 73.8727 3.73C73.7127 3.99667 73.486 4.20667 73.1927 4.36ZM69.6627 2.22V3.87H71.2727C71.6727 3.87 71.976 3.8 72.1827 3.66C72.3893 3.52 72.4927 3.31333 72.4927 3.04C72.4927 2.76667 72.3893 2.56333 72.1827 2.43C71.976 2.29 71.6727 2.22 71.2727 2.22H69.6627ZM71.5527 6.78C71.9793 6.78 72.2993 6.71 72.5127 6.57C72.7327 6.43 72.8427 6.21333 72.8427 5.92C72.8427 5.34 72.4127 5.05 71.5527 5.05H69.6627V6.78H71.5527ZM80.0591 5.52V8H78.4391V5.5L75.7291 1H77.4491L79.3191 4.11L81.1891 1H82.7791L80.0591 5.52Z" fill="#CCCCCC"/>
</svg>
